<?xml version="1.0" encoding="utf-8"?>
<!-- Generator: Adobe Illustrator 16.0.4, SVG Export Plug-In . SVG Version: 6.00 Build 0)  -->
<!DOCTYPE svg PUBLIC "-//W3C//DTD SVG 1.1//EN" "http://www.w3.org/Graphics/SVG/1.1/DTD/svg11.dtd">
<svg version="1.1" id="Layer_1" xmlns="http://www.w3.org/2000/svg" xmlns:xlink="http://www.w3.org/1999/xlink" x="0px" y="0px"
	 width="150px" height="63px" viewBox="0 0 150 63" enable-background="new 0 0 150 63" xml:space="preserve">
<linearGradient id="SVGID_1_" gradientUnits="userSpaceOnUse" x1="34.3594" y1="28.1523" x2="39.2145" y2="30.9554">
	<stop  offset="0" style="stop-color:#00AFEA"/>
	<stop  offset="1" style="stop-color:#0072BC"/>
</linearGradient>
<path fill="url(#SVGID_1_)" d="M36.665,14.943h-0.011c0.382,4.963-0.596,10.011-2.94,14.536c2.345,4.526,3.322,9.574,2.94,14.538
	c0.003,0,0.007,0,0.011-0.001C44.689,35.987,44.689,22.974,36.665,14.943z"/>
<linearGradient id="SVGID_2_" gradientUnits="userSpaceOnUse" x1="16.855" y1="17.5693" x2="29.6723" y2="10.1693">
	<stop  offset="0" style="stop-color:#D9166E"/>
	<stop  offset="1" style="stop-color:#ED1C24"/>
</linearGradient>
<path fill="url(#SVGID_2_)" d="M36.654,14.943c0-0.006,0-0.009-0.001-0.011c-4.014-4.012-9.275-6.018-14.537-6.018
	c-5.26,0-10.52,2.006-14.536,6.018c-0.001,0.002-0.001,0.007-0.001,0.011c4.964-0.383,10.012,0.595,14.537,2.941
	C26.643,15.539,31.69,14.561,36.654,14.943z"/>
<linearGradient id="SVGID_3_" gradientUnits="userSpaceOnUse" x1="33.5146" y1="24.1807" x2="29.7631" y2="17.125">
	<stop  offset="0" style="stop-color:#63CDF6"/>
	<stop  offset="1" style="stop-color:#00A0E4"/>
</linearGradient>
<path fill="url(#SVGID_3_)" d="M28.811,22.786c2.021,2.021,3.653,4.284,4.903,6.693c2.345-4.525,3.322-9.573,2.94-14.536
	c-0.697-0.054-1.396-0.081-2.094-0.081c-4.278,0-8.553,1.006-12.444,3.022C24.527,19.132,26.79,20.764,28.811,22.786z"/>
<linearGradient id="SVGID_4_" gradientUnits="userSpaceOnUse" x1="27.0581" y1="45.561" x2="14.8586" y2="45.561">
	<stop  offset="0" style="stop-color:#1F9A4A"/>
	<stop  offset="1" style="stop-color:#006543"/>
</linearGradient>
<path fill="url(#SVGID_4_)" d="M22.116,41.076c-4.525,2.344-9.573,3.323-14.537,2.941c0,0.004,0,0.008,0.001,0.01
	c8.031,8.024,21.043,8.024,29.073,0c0.001-0.002,0.001-0.006,0.001-0.01C31.69,44.399,26.643,43.42,22.116,41.076z"/>
<linearGradient id="SVGID_5_" gradientUnits="userSpaceOnUse" x1="34.498" y1="37.4346" x2="27.2923" y2="44.6404">
	<stop  offset="0" style="stop-color:#72BF44"/>
	<stop  offset="1" style="stop-color:#23AA4A"/>
</linearGradient>
<path fill="url(#SVGID_5_)" d="M36.654,44.018c0.382-4.964-0.596-10.012-2.94-14.538c-1.25,2.41-2.881,4.672-4.903,6.695
	c-2.021,2.02-4.283,3.653-6.695,4.901C26.643,43.42,31.69,44.399,36.654,44.018z"/>
<linearGradient id="SVGID_6_" gradientUnits="userSpaceOnUse" x1="2.9736" y1="36.7437" x2="10.8815" y2="23.0469">
	<stop  offset="0" style="stop-color:#F37021"/>
	<stop  offset="1" style="stop-color:#FCB117"/>
</linearGradient>
<path fill="url(#SVGID_6_)" d="M7.579,14.943h-0.01c-3.996,3.999-6.002,9.233-6.019,14.472v0.131
	c0.017,5.239,2.023,10.473,6.019,14.471c0.003,0.001,0.005,0.001,0.01,0.001c-0.38-4.964,0.597-10.013,2.941-14.538
	C8.176,24.953,7.199,19.907,7.579,14.943z"/>
<linearGradient id="SVGID_7_" gradientUnits="userSpaceOnUse" x1="9.165" y1="36.8633" x2="14.8684" y2="42.5667">
	<stop  offset="0" style="stop-color:#72BF44"/>
	<stop  offset="1" style="stop-color:#23AA4A"/>
</linearGradient>
<path fill="url(#SVGID_7_)" d="M15.422,36.173c-2.021-2.021-3.652-4.285-4.902-6.693c-2.344,4.525-3.321,9.574-2.941,14.538
	c4.964,0.382,10.012-0.597,14.537-2.941C19.708,39.828,17.444,38.196,15.422,36.173z"/>
<linearGradient id="SVGID_8_" gradientUnits="userSpaceOnUse" x1="10.4844" y1="23.9717" x2="15.6996" y2="14.9386">
	<stop  offset="0" style="stop-color:#F37021"/>
	<stop  offset="1" style="stop-color:#ED1C24"/>
</linearGradient>
<path fill="url(#SVGID_8_)" d="M9.674,14.863c-0.699,0-1.397,0.027-2.095,0.081c-0.38,4.964,0.597,10.01,2.941,14.536
	c1.25-2.41,2.882-4.672,4.902-6.693c2.023-2.021,4.285-3.654,6.694-4.901C18.226,15.869,13.95,14.863,9.674,14.863z"/>
<linearGradient id="SVGID_9_" gradientUnits="userSpaceOnUse" x1="55.502" y1="33.3052" x2="129.8302" y2="73.1597">
	<stop  offset="0" style="stop-color:#00AFEA"/>
	<stop  offset="1" style="stop-color:#0072BC"/>
</linearGradient>
<path fill="url(#SVGID_9_)" d="M83.817,29.469c-0.004-10.743-8.547-19.452-19.104-19.453c-4.516,0-8.659,1.601-11.929,4.263
	c-1.936-3.721-6.366-3.899-7.347-3.905c-0.13,0.001-0.204,0.004-0.211,0.004L44.887,10.4v43.216
	c-0.013,3.672,1.739,5.698,3.633,6.711c1.889,1.021,3.9,1.103,4.566,1.104c0.144,0,0.221-0.004,0.225-0.004l0.344-0.017V45.312
	c3.122,2.263,6.933,3.61,11.058,3.613C75.27,48.92,83.813,40.211,83.817,29.469z M64.454,40.733
	c-6.1-0.011-11.042-5.039-11.054-11.264c0.011-6.223,4.949-11.255,11.054-11.264c6.099,0.009,11.04,5.041,11.052,11.264
	C75.494,35.694,70.553,40.722,64.454,40.733z"/>
<linearGradient id="SVGID_10_" gradientUnits="userSpaceOnUse" x1="81.3926" y1="14.4189" x2="164.0831" y2="58.7572">
	<stop  offset="0" style="stop-color:#00AFEA"/>
	<stop  offset="1" style="stop-color:#0072BC"/>
</linearGradient>
<path fill="url(#SVGID_10_)" d="M124.393,48.579c0.129,0,0.203-0.002,0.209-0.002l0.346-0.015V18.2
	c0.012-3.672-1.74-5.704-3.635-6.712c-1.894-1.021-3.9-1.104-4.569-1.106c-0.142,0-0.222,0.004-0.229,0.006l-0.336,0.021v3.217
	c-3.121-2.264-6.931-3.611-11.055-3.611c-10.557,0.003-19.102,8.713-19.105,19.463c0.004,10.747,8.549,19.462,19.105,19.466
	c4.521-0.003,8.667-1.608,11.934-4.276C118.995,48.373,123.412,48.576,124.393,48.579z M105.381,40.749
	c-6.101-0.01-11.04-5.044-11.058-11.272c0.018-6.225,4.955-11.256,11.058-11.27c6.1,0.013,11.043,5.045,11.053,11.271
	C116.424,35.705,111.48,40.739,105.381,40.749z"/>
<linearGradient id="SVGID_11_" gradientUnits="userSpaceOnUse" x1="80.2783" y1="-2.8057" x2="175.3352" y2="48.1634">
	<stop  offset="0" style="stop-color:#00AFEA"/>
	<stop  offset="1" style="stop-color:#0072BC"/>
</linearGradient>
<path fill="url(#SVGID_11_)" d="M136.358,48.571l0.341-0.016V9.321c0-7.164-6.569-7.731-8.365-7.752h-0.218
	c-0.148,0.002-0.23,0.007-0.23,0.007v39.23c-0.014,3.652,1.748,5.669,3.653,6.673c1.9,1.016,3.92,1.097,4.587,1.097
	C136.268,48.576,136.354,48.573,136.358,48.571z"/>
<linearGradient id="SVGID_12_" gradientUnits="userSpaceOnUse" x1="85.3096" y1="46.377" x2="163.9388" y2="46.377">
	<stop  offset="0" style="stop-color:#00AFEA"/>
	<stop  offset="1" style="stop-color:#0072BC"/>
</linearGradient>
<path fill="url(#SVGID_12_)" d="M143.053,44.522v-0.338h-2.835c-0.406,0-0.582,0.298-0.582,0.496v0.369h1.198v2.982
	c0,0.388,0.226,0.541,0.573,0.541h0.428v-3.522h0.653C142.82,45.048,143.053,44.737,143.053,44.522z"/>
<linearGradient id="SVGID_13_" gradientUnits="userSpaceOnUse" x1="78.3086" y1="46.3965" x2="168.7688" y2="46.3965">
	<stop  offset="0" style="stop-color:#00AFEA"/>
	<stop  offset="1" style="stop-color:#0072BC"/>
</linearGradient>
<path fill="url(#SVGID_13_)" d="M148.044,48.571h0.406c0-1.205-0.098-2.399-0.218-3.43c-0.073-0.592-0.364-0.937-0.925-0.937h-0.07
	c-0.241,0.158-0.499,0.667-0.713,1.258c-0.212,0.589-0.366,1.222-0.571,1.824c-0.294-1.006-0.521-1.756-0.785-2.383
	c-0.145-0.339-0.52-0.682-1.151-0.682h-0.224c-0.18,0.992-0.334,2.519-0.334,3.75c0,0.364,0.252,0.592,0.582,0.601l0.355,0.019
	c0-0.797,0.049-1.901,0.144-3.308c0.298,0.981,0.428,1.422,0.595,1.965c0.297,1.017,0.534,1.342,0.868,1.342h0.235
	c0.166-0.312,0.359-0.83,0.51-1.354c0.168-0.553,0.31-1.088,0.56-1.939c0.094,1.349,0.13,2.176,0.13,2.576
	C147.438,48.348,147.688,48.571,148.044,48.571z"/>
</svg>
